<?xml version="1.0" standalone="no"?>
<!DOCTYPE svg PUBLIC "-//W3C//DTD SVG 20010904//EN"
 "http://www.w3.org/TR/2001/REC-SVG-20010904/DTD/svg10.dtd">
<svg version="1.0" xmlns="http://www.w3.org/2000/svg"
 width="1024.000000pt" height="48.000000pt" viewBox="0 0 1024.000000 48.000000"
 preserveAspectRatio="xMidYMid meet">

<g transform="translate(0.000000,48.000000) scale(0.100000,-0.100000)"
fill="#000000" stroke="none">
<path d="M0 240 l0 -240 5120 0 5120 0 0 240 0 240 -5120 0 -5120 0 0 -240z
m235 186 c56 -37 77 -146 41 -214 -48 -92 -187 -95 -239 -5 -25 43 -25 133 0
176 37 64 134 85 198 43z m515 11 c0 -1 23 -65 50 -142 28 -77 50 -141 50
-143 0 -2 -10 -2 -22 0 -15 2 -25 15 -36 46 l-14 43 -56 -3 -55 -3 -15 -42
c-10 -31 -19 -43 -33 -43 -10 0 -19 2 -19 4 0 5 82 236 95 269 4 9 18 17 31
17 13 0 24 -1 24 -3z m610 -142 c0 -122 -2 -145 -15 -145 -8 0 -15 5 -15 11 0
5 -10 3 -22 -5 -64 -45 -138 9 -138 101 0 78 59 129 122 105 l28 -10 0 44 c0
37 3 44 20 44 19 0 20 -7 20 -145z m550 125 c0 -11 -7 -20 -15 -20 -8 0 -15 9
-15 20 0 11 7 20 15 20 8 0 15 -9 15 -20z m270 -125 c0 -122 -2 -145 -15 -145
-8 0 -15 5 -15 11 0 5 -10 3 -22 -5 -64 -45 -138 9 -138 101 0 78 59 129 122
105 l28 -10 0 44 c0 37 3 44 20 44 19 0 20 -7 20 -145z m-1682 59 c24 -16 30
-54 9 -54 -7 0 -18 9 -25 20 -15 24 -45 26 -67 4 -21 -21 -7 -37 47 -53 56
-17 68 -28 68 -60 0 -41 -21 -62 -68 -68 -47 -6 -86 12 -95 46 -7 27 16 28 43
1 23 -23 49 -25 75 -6 28 20 12 41 -40 56 -55 15 -75 33 -75 66 0 55 77 84
128 48z m569 8 c21 -13 33 -62 33 -138 0 -67 -2 -74 -20 -74 -18 0 -20 7 -20
84 0 93 -11 113 -55 102 -33 -8 -45 -41 -45 -122 0 -50 -3 -64 -15 -64 -12 0
-15 18 -15 105 0 87 3 105 15 105 8 0 15 -8 15 -17 0 -11 3 -14 8 -7 19 28 73
42 99 26z m483 -12 c0 -13 -7 -20 -19 -20 -34 0 -51 -38 -51 -112 0 -54 -3
-68 -15 -68 -12 0 -15 18 -15 105 0 87 3 105 15 105 8 0 15 -5 15 -11 0 -5 10
-3 22 5 30 22 48 20 48 -4z m211 -9 c25 -26 29 -37 29 -86 0 -49 -4 -60 -29
-86 -44 -43 -114 -35 -142 17 -16 31 -16 107 0 138 28 52 98 61 142 17z m149
-86 c0 -87 -3 -105 -15 -105 -12 0 -15 18 -15 105 0 87 3 105 15 105 12 0 15
-18 15 -105z"/>
<path d="M115 406 c-39 -17 -60 -58 -59 -115 1 -59 26 -98 73 -112 31 -9 43
-8 70 6 81 41 79 186 -3 220 -42 18 -43 18 -81 1z"/>
<path d="M701 335 c-12 -31 -21 -58 -21 -60 0 -3 20 -5 44 -5 l45 0 -21 60
c-11 33 -21 60 -23 60 -2 0 -13 -25 -24 -55z"/>
<path d="M1230 320 c-41 -41 -16 -150 35 -150 8 0 24 9 35 20 41 41 16 150
-35 150 -8 0 -24 -9 -35 -20z"/>
<path d="M2050 320 c-41 -41 -16 -150 35 -150 8 0 24 9 35 20 41 41 16 150
-35 150 -8 0 -24 -9 -35 -20z"/>
<path d="M1666 327 c-22 -16 -31 -83 -17 -119 16 -42 58 -48 88 -14 29 34 30
84 2 120 -22 29 -46 33 -73 13z"/>
</g>
</svg>
